<?xml version="1.0" encoding="UTF-8" standalone="no"?>
<!-- Created with Inkscape (http://www.inkscape.org/) -->

<svg
   width="39.295044"
   height="35.767578"
   viewBox="0 0 39.295044 35.767578"
   version="1.1"
   id="svg1"
   xmlns="http://www.w3.org/2000/svg"
   xmlns:svg="http://www.w3.org/2000/svg">
  <defs
     id="defs1" />
  <g
     id="layer1"
     transform="translate(-40.352653,-39.321879)">
    <path
       id="path8"
       fill="#00966e"
       d="m 42.485007,44.999614 c -1.138551,1.831793 -1.674911,3.920785 -1.623047,6 h 38.275392 c 0.05149,-2.079054 -0.484892,-4.168358 -1.623048,-6 z" />
    <path
       id="path8-2"
       fill="#ffffff"
       d="m 76.926872,44.999613 c -0.380677,-0.572959 -0.823709,-1.116685 -1.330078,-1.623046 -2.039154,-2.039156 -4.694409,-3.058594 -7.34961,-3.058594 -2.6552,0 -5.310453,1.019439 -7.349609,3.058594 l -0.896485,0.896484 -0.896484,-0.896484 c -2.039108,-2.039107 -4.694237,-3.055019 -7.351562,-3.054688 -2.657258,3.32e-4 -5.310326,1.017349 -7.34961,3.056641 -0.505695,0.505695 -0.947838,1.049017 -1.328125,1.621093 z" />
    <path
       id="path19"
       fill="#ffffff"
       d="m 78.1007,44.999613 c -0.485249,-0.831706 -1.083202,-1.616423 -1.796875,-2.330078 -4.457719,-4.457717 -11.655562,-4.457716 -16.113281,0 l -0.189454,0.189453 -0.189453,-0.189453 c -2.228907,-2.228906 -5.14566,-3.348019 -8.058593,-3.347656 -2.912998,3.64e-4 -5.827911,1.12087 -8.056641,3.349609 -0.713231,0.713232 -1.311877,1.497048 -1.796875,2.328125 h 1.175781 c 0.380287,-0.572076 0.82243,-1.115398 1.328125,-1.621093 2.039284,-2.039292 4.692352,-3.056309 7.34961,-3.056641 2.657325,-3.31e-4 5.312454,1.015581 7.351562,3.054688 l 0.896484,0.896484 0.896485,-0.896484 c 2.039156,-2.039155 4.694409,-3.058594 7.349609,-3.058594 2.655201,0 5.310456,1.019438 7.34961,3.058594 0.506369,0.506361 0.949401,1.050087 1.330078,1.623046 z" />
    <path
       id="path12"
       fill="#d62612"
       d="m 40.86196,50.999614 c 0.05253,2.105992 0.708616,4.199882 1.982422,6 h 34.312501 c 1.273665,-1.800251 1.928304,-3.893647 1.980469,-6 z" />
    <path
       id="path13"
       fill="#000000"
       d="m 43.436041,57 c 0.253361,0.386496 0.524777,0.759869 0.819328,1.117968 L 44.791308,58.769531 48.27105,63 h 23.457898 l 3.479743,-4.230469 0.535938,-0.651563 C 76.039182,57.759869 76.310614,57.386517 76.563959,57 Z" />
    <path
       id="path14"
       fill="#dd0000"
       d="m 48.61782,62.999614 6,6 h 10.765626 l 6,-6 z" />
    <path
       id="path15"
       fill="#ffcc00"
       d="m 54.61782,68.999614 5.382812,5.382812 5.382814,-5.382812 z" />
    <path
       fill="#000000"
       d="m 51.752585,39.321879 c -2.913001,3.64e-4 -5.827908,1.120868 -8.05664,3.34961 -4.457723,4.457722 -4.457723,11.655559 0,16.113281 l 0.542969,0.542969 15.761718,15.761718 15.76172,-15.761718 0.542969,-0.542969 c 4.45783,-4.457829 4.455837,-11.657513 -0.002,-16.115235 -4.457723,-4.457722 -11.655558,-4.457721 -16.113282,0 l -0.189453,0.189454 -0.189453,-0.189454 c -2.22891,-2.228908 -5.145658,-3.348019 -8.058594,-3.347656 z m 16.494142,0.996094 c 2.655203,0 5.310452,1.019436 7.349608,3.058594 4.07838,4.078316 4.080161,10.622965 0.002,14.701172 L 75.055321,58.620707 60.000632,73.675395 44.945945,58.620707 44.402976,58.077739 c -4.078314,-4.078314 -4.078314,-10.620904 0,-14.699219 2.039286,-2.039294 4.692349,-3.056309 7.349609,-3.056641 2.657328,-3.31e-4 5.312453,1.015579 7.351563,3.054688 l 0.896484,0.896484 0.896485,-0.896484 c 2.039158,-2.039157 4.694407,-3.058594 7.34961,-3.058594 z"
       id="rect1" />
    <path
       fill="000000"
       d="m 52.130795,40.141975 c -2.77942,3.47e-4 -5.560658,1.069469 -7.687187,3.196008 -4.253306,4.253304 -4.253306,11.12107 0,15.374374 l 0.518069,0.51807 15.038934,15.038934 15.038935,-15.038934 0.518071,-0.51807 c 4.253406,-4.253406 4.251504,-11.122934 -0.0019,-15.376239 -4.253304,-4.253304 -11.121069,-4.253303 -15.374375,0 l -0.180766,0.180766 -0.180765,-0.180766 C 57.693148,41.209421 54.910153,40.14163 52.130795,40.141975 Z m 15.73777,0.950417 c 2.533443,0 5.066931,0.972687 7.012578,2.918336 3.891357,3.891297 3.893057,10.135827 0.0019,14.027021 L 74.364974,58.555818 60.000649,72.920143 45.636325,58.555818 45.118254,58.037749 c -3.891295,-3.891295 -3.891295,-10.133862 0,-14.025158 1.945771,-1.945778 4.477172,-2.916156 7.012579,-2.916473 2.535471,-3.15e-4 5.068839,0.969009 7.014443,2.91461 l 0.855373,0.855374 0.855376,-0.855374 c 1.945647,-1.945648 4.479133,-2.918336 7.012578,-2.918336 z"
       id="path16" />
  </g>
</svg>
