<svg
   width="154.77933mm"
   height="104.13266mm"
   viewBox="0 0 154.77933 104.13266"
   version="1.1"
   id="svg1"
   xml:space="preserve"
   xmlns="http://www.w3.org/2000/svg"
   xmlns:svg="http://www.w3.org/2000/svg"><defs
     id="defs1" /><g
     id="layer1"
     transform="translate(-23.314787,-16.203146)"><g
       id="g43"><path
         id="path1"
         style="color:#000000;fill:#000000;-inkscape-stroke:none;paint-order:markers fill stroke"
         d="m 100.70496,16.203145 c -25.706553,0 -47.078666,18.686154 -51.296606,43.198397 h 4.193542 C 57.756339,37.151709 77.239587,20.33571 100.70496,20.33571 c 23.46538,1e-6 42.94915,16.816 47.10359,39.065832 h 4.19354 C 147.78417,34.889283 126.41153,16.203145 100.70496,16.203145 Z M 49.206816,75.936967 c 3.713997,25.101973 25.372257,44.398843 51.498144,44.398843 26.1259,0 47.78468,-19.29687 51.49867,-44.398843 h -4.18114 c -3.6651,22.843678 -23.43134,40.266273 -47.31753,40.266273 -23.886181,0 -43.651904,-17.422595 -47.317004,-40.266273 z" /><path
         id="path1-8"
         style="color:#000000;fill:#dd0000;-inkscape-stroke:none;paint-order:markers fill stroke"
         d="m 100.70496,20.202901 c -23.491169,0 -43.064168,16.906691 -47.233805,39.198641 h 4.193542 c 4.094924,-20.028032 21.790525,-35.06556 43.040263,-35.06556 21.24974,10e-7 38.94586,15.037528 43.04079,35.06556 h 4.19354 C 143.76965,37.109592 124.19613,20.202901 100.70496,20.202901 Z M 53.256181,75.936967 c 3.678488,22.883921 23.536921,40.399083 47.448779,40.399083 23.91186,0 43.77082,-17.515162 47.4493,-40.399083 h -4.19457 c -3.6225,20.622374 -21.58405,36.266003 -43.25473,36.266003 -21.670687,0 -39.632234,-15.643609 -43.25472,-36.266003 z" /><path
         id="path1-8-1"
         style="color:#000000;fill:#ffcc00;-inkscape-stroke:none;paint-order:markers fill stroke"
         d="m 100.70496,24.203174 c -21.275693,0 -39.059824,15.126929 -43.171004,35.198368 h 4.234884 c 4.027236,-17.798975 19.907075,-31.065804 38.93612,-31.065804 19.02905,1e-6 34.90889,13.266829 38.93613,31.065804 h 4.2354 C 139.76531,39.330103 121.98066,24.203174 100.70496,24.203174 Z M 57.318982,75.936967 c 3.636965,20.663708 21.689572,36.398813 43.385978,36.398813 21.6964,0 39.74901,-15.735125 43.38599,-36.398813 h -4.19355 c -3.56984,18.40063 -19.73739,32.266243 -39.19244,32.266243 -19.455043,0 -35.62259,-13.865613 -39.192436,-32.266243 z" /><path
         id="path1-8-1-2"
         style="color:#000000;fill:#ffffff;-inkscape-stroke:none;paint-order:markers fill stroke"
         d="m 100.70496,28.20293 c -19.083428,0 -35.180756,13.314993 -39.196053,31.198612 h 4.234884 c 3.914072,-15.609367 18.124922,-27.06553 34.961169,-27.065531 16.83626,10e-7 30.91262,11.456157 34.82668,27.065531 h 4.23437 C 135.7507,41.517944 119.78838,28.20293 100.70496,28.20293 Z M 61.381783,75.936967 c 3.585377,18.443423 19.842176,32.399053 39.323177,32.399053 19.48101,0 35.73781,-13.95563 39.32319,-32.399053 h -4.21473 c -3.50656,16.174909 -17.8717,28.265963 -35.10846,28.265973 -17.236716,0 -31.601342,-12.091105 -35.10793,-28.265973 z" /><path
         id="path1-8-1-2-8"
         style="color:#000000;fill:#00966e;-inkscape-stroke:none;paint-order:markers fill stroke"
         d="m 100.70496,32.203202 c -16.835042,0 -31.001254,11.58135 -34.961169,27.19834 h 4.280875 C 73.860962,46.06898 86.123679,36.335767 100.70496,36.335767 c 14.58132,0 26.84455,9.733173 30.68082,23.065775 h 4.28036 C 131.70619,43.784604 117.53997,32.203202 100.70496,32.203202 Z M 65.466288,75.936967 c 3.523267,16.219513 17.975616,28.398783 35.238672,28.398783 17.26309,0 31.71596,-12.179226 35.2392,-28.398783 h -4.2354 c -3.4271,13.945676 -15.98781,24.266223 -31.0038,24.266223 -15.015973,0 -27.576164,-10.320559 -31.003271,-24.266223 z" /><path
         id="path1-8-1-2-8-3"
         style="color:#000000;fill:#d62612;-inkscape-stroke:none;paint-order:markers fill stroke"
         d="m 100.70496,36.202958 c -14.608642,0 -26.953675,9.816588 -30.810002,23.198584 h 4.31705 c 3.699595,-11.089387 14.143934,-19.065503 26.492952,-19.065503 12.34905,0 22.7939,7.976081 26.49348,19.065503 h 4.31653 C 127.65862,46.019585 115.31358,36.202958 100.70496,36.202958 Z M 69.571464,75.936967 c 3.445251,13.992364 16.090789,24.399023 31.133496,24.399023 15.04275,0 27.6888,-10.406615 31.13402,-24.399023 h -4.27054 c -3.32552,11.709966 -14.07316,20.265946 -26.86348,20.265946 -12.790339,0 -23.537975,-8.555944 -26.863472,-20.265946 z" /></g><path
       d="m 94.305701,57.752298 q 0,2.532147 -1.627809,4.3925 -1.438328,1.66226 -4.039377,1.748387 -0.499539,0.01723 -2.747465,0.01723 -0.422025,0 -1.274687,-0.02584 -0.844049,-0.02584 -1.266073,-0.02584 -0.24977,0 -0.24977,-0.198093 0,-0.947402 0.0689,-2.842206 0.07752,-1.903416 0.07752,-2.850818 0,-0.990466 -0.07752,-2.962784 -0.0689,-1.980931 -0.0689,-2.962784 0,-0.180868 0.24977,-0.215319 0.611505,-0.0689 2.006769,-0.0689 2.652726,0 3.436485,0.07751 2.041221,0.206706 3.195329,1.033529 1.085206,0.775147 1.713936,2.170412 0.602892,1.31775 0.602892,2.713014 z m -3.298681,0 q 0,-1.455554 -0.869887,-2.377117 -0.8785,-0.956015 -2.325441,-0.956015 -1.326363,0 -1.326363,0.353123 0,0.508152 -0.01723,1.533068 -0.01722,1.016304 -0.01722,1.524456 0,0.499539 0.01722,1.50723 0.01723,0.999079 0.01723,1.507231 0,0.370348 1.378039,0.370348 1.490005,0 2.342667,-0.990466 0.800985,-0.938789 0.800985,-2.471858 z m 14.84302,2.385731 q 0,1.584744 -0.99046,2.626887 -1.12827,1.197171 -3.96186,1.197171 -0.21532,0 -0.62012,-0.0086 -0.413413,0 -0.611506,0 -3.178103,0 -3.780995,-0.129191 -0.249769,-0.05168 -0.249769,-0.266995 0,-0.921564 0.103352,-2.790529 0.111966,-1.868966 0.111966,-2.799142 0,-0.999078 -0.103353,-3.755157 -0.02584,-0.706245 -0.09474,-2.118735 l -0.0086,-0.120578 q -0.0086,-0.163642 0.266995,-0.198093 0.284221,-0.03445 1.998157,-0.03445 2.747463,0 3.212553,0.01723 2.11873,0.07751 3.12642,0.68902 1.33498,0.81821 1.33498,2.764691 0,0.508152 -0.31006,1.076593 -0.22393,0.404799 -0.58567,0.809598 -0.31867,0.353122 -0.31867,0.327284 0,0.06029 0.22393,0.18948 0.6029,0.34451 0.94741,1.093819 0.31005,0.671794 0.31005,1.429716 z m -3.70348,-4.848976 q 0,-0.740696 -0.74069,-0.981853 -0.41341,-0.129191 -1.36082,-0.129191 -0.930172,0 -0.930172,0.137804 0,0.163642 -0.03445,0.499539 -0.02584,0.327285 -0.02584,0.490927 0,0.861274 0.146417,0.964627 0.09474,0.07752 1.093815,0.07752 1.85174,0 1.85174,-1.059368 z m 0.25839,4.814525 q 0,-0.775147 -0.64596,-1.050755 -0.41341,-0.172255 -1.34359,-0.172255 -1.111041,0 -1.205781,0.08613 -0.09474,0.07751 -0.09474,1.050755 0,1.016304 0.111966,1.12827 0.111966,0.103353 1.240235,0.103353 0.93018,0 1.30914,-0.146417 0.62873,-0.24977 0.62873,-0.999078 z m 15.90239,3.479548 q 0.0172,0.232544 -0.24116,0.232544 -0.16364,0 -0.9474,-0.18948 -0.77515,-0.18948 -0.95602,-0.258382 -1.80006,0.706245 -3.45371,0.706245 -2.66133,0 -4.36666,-1.774226 -1.6881,-1.748387 -1.6881,-4.418338 0,-2.73024 1.63643,-4.530303 1.68809,-1.860353 4.38388,-1.860353 1.30914,0 2.46325,0.499539 1.24885,0.551216 1.9637,1.550294 0.14642,0.206706 0.14642,0.292834 0,0.275607 -0.77515,1.240235 -0.76653,0.956014 -0.99046,0.956014 -0.0517,0 -0.39619,-0.353122 -0.42202,-0.422025 -0.86127,-0.654569 -0.65457,-0.353122 -1.44694,-0.353122 -1.29192,0 -2.04984,0.964627 -0.70624,0.887113 -0.70624,2.213475 0,1.403878 0.73208,2.222089 0.75792,0.844049 2.14457,0.844049 0.8785,0 1.96371,-0.43925 -0.0258,-0.284221 -0.15503,-1.446942 -0.11197,-0.895725 -0.11197,-1.446941 0,-0.163642 0.11197,-0.198093 0.0431,-0.01723 0.1378,-0.01723 0.24977,0 0.74931,0.05168 0.50816,0.04306 0.76654,0.04306 0.27561,0 0.82682,-0.03445 0.55122,-0.04306 0.82682,-0.04306 0.21532,0 0.21532,0.284221 0,0.413412 -0.0517,1.248848 -0.0431,0.835436 -0.0431,1.248848 0,1.111044 0.16365,3.324519 z"
       id="text1"
       style="font-weight:bold;font-size:17.6389px;font-family:'Berlin Sans FB Demi';-inkscape-font-specification:'Berlin Sans FB Demi, Bold';letter-spacing:0.0291042px;fill-opacity:0.941176;stroke-width:3.43958;paint-order:markers fill stroke"
       aria-label="DBG" /><g
       id="text2"
       style="font-weight:bold;font-size:9.17222px;font-family:'Berlin Sans FB Demi';-inkscape-font-specification:'Berlin Sans FB Demi, Bold';letter-spacing:0.0291042px;fill-opacity:0.941176;stroke:#000000;stroke-width:0.202142;stroke-opacity:0;paint-order:markers fill stroke"
       aria-label="Deutsch-Bulgarische Gesellschaft e. V."><path
         d="m 29.242547,69.595332 q 0,1.316715 -0.84646,2.284098 -0.74793,0.864374 -2.100474,0.90916 -0.25976,0.009 -1.428681,0.009 -0.219452,0 -0.662836,-0.01344 -0.438905,-0.01344 -0.658358,-0.01344 -0.12988,0 -0.12988,-0.103009 0,-0.492648 0.03583,-1.477945 0.04031,-0.989776 0.04031,-1.482425 0,-0.515041 -0.04031,-1.540646 -0.03583,-1.030083 -0.03583,-1.540646 0,-0.09405 0.12988,-0.111966 0.317983,-0.03583 1.04352,-0.03583 1.379415,0 1.78697,0.04031 1.061434,0.107487 1.661569,0.537435 0.564307,0.403076 0.891246,1.128613 0.313504,0.685229 0.313504,1.410766 z m -1.715313,0 q 0,-0.756887 -0.452341,-1.2361 -0.456819,-0.497127 -1.209228,-0.497127 -0.689708,0 -0.689708,0.183623 0,0.264239 -0.009,0.797195 -0.009,0.528478 -0.009,0.792716 0,0.259761 0.009,0.78376 0.009,0.51952 0.009,0.783759 0,0.19258 0.71658,0.19258 0.774802,0 1.218185,-0.515041 0.416512,-0.48817 0.416512,-1.285365 z"
         id="path62" /><path
         d="m 34.036906,70.338783 q 0,0.452341 -0.29111,0.515042 -0.04926,0.009 -0.927075,0.09853 -0.528478,0.05822 -1.576476,0.138837 0.0627,0.29111 0.380683,0.443384 0.25976,0.125401 0.591179,0.125401 0.398597,0 0.801673,-0.214974 0.170188,-0.107487 0.340375,-0.214974 0.09405,0.04479 0.313504,0.45682 0.223931,0.412033 0.223931,0.523999 0,0.03135 -0.06718,0.103008 -0.546392,0.5867 -1.697398,0.5867 -1.065913,0 -1.719792,-0.622529 -0.671793,-0.631486 -0.671793,-1.688441 0,-1.030083 0.600135,-1.688441 0.61805,-0.68075 1.639177,-0.68075 0.859895,0 1.460031,0.627007 0.600135,0.627007 0.600136,1.491381 z m -1.567518,-0.273196 q 0,-0.277674 -0.197059,-0.48817 -0.19706,-0.210495 -0.470256,-0.210495 -0.282153,0 -0.465777,0.237367 -0.170187,0.219453 -0.170187,0.515042 0,0.120923 0.125401,0.120923 0.331418,0 1.030084,-0.103009 0.147794,-0.02239 0.147794,-0.07166 z m 6.697774,-1.36598 q 0,0.331418 -0.03135,0.994255 -0.03135,0.662836 -0.03135,0.994254 0,0.322461 0.02239,0.967382 0.02239,0.644922 0.02239,0.962904 0,0.120923 -0.111965,0.152274 -0.170188,0.04479 -0.721059,0.04479 -0.488169,0 -0.68075,-0.02687 -0.08509,-0.01344 -0.107487,-0.107487 -0.01344,-0.134358 -0.02687,-0.268717 -0.02239,-0.206017 -0.0627,-0.206017 0.0627,0 -0.452341,0.304547 -0.515041,0.304546 -0.936032,0.304546 -1.186835,0 -1.406288,-1.070391 -0.09853,-0.497127 -0.09853,-1.442117 0,-1.021126 0.165709,-1.612304 0.04926,-0.183624 0.183623,-0.183624 0.206017,0 0.627008,0.0045 0.42099,0.0045 0.627007,0.0045 0.138837,0 0.138837,0.116444 0,0.03135 -0.009,0.09405 -0.09405,0.609093 -0.09405,1.2361 0,0.77928 0.04926,1.065912 0.08062,0.492649 0.586699,0.492649 0.19706,0 0.42547,-0.174667 0.232888,-0.174666 0.241845,-0.362768 0.009,-0.165709 0.009,-2.248269 0,-0.147794 0.02239,-0.174666 0.02687,-0.04479 0.16123,-0.04479 0.219452,0 0.658358,0.0045 0.443383,0.0045 0.662836,0.0045 0.134358,0 0.156752,0.06718 0.009,0.03583 0.009,0.107487 z m 3.764276,2.758832 q 0,0.134359 -0.03583,0.407555 -0.03135,0.273196 -0.03135,0.403076 0,0.125401 -0.02687,0.16123 -0.02687,0.03583 -0.147795,0.103009 -0.577742,0.317982 -1.280886,0.317982 -1.294322,0 -1.294322,-0.989776 0,-0.295589 0.02239,-0.886767 0.02239,-0.595657 0.02239,-0.891246 0,-0.19706 -0.22841,-0.19706 -0.01791,0 -0.05822,0 -0.04031,0.0045 -0.05822,0.0045 -0.170188,0 -0.170188,-0.120923 0,-0.07166 0.009,-0.219452 0.01344,-0.147795 0.01344,-0.219453 0,-0.09405 -0.01344,-0.286632 -0.009,-0.192581 -0.009,-0.286632 0,-0.08957 0.286632,-0.09853 0.161231,-0.0045 0.174667,-0.08957 0.02687,-0.170188 0.01791,-0.537435 -0.01791,-0.577742 -0.01791,-0.55087 0,-0.519521 0.09853,-0.519521 0.120923,0 0.344854,0.05374 0.255282,0.05822 0.353811,0.06718 0.22841,0.03135 0.689708,0.08509 0.111966,0.009 0.111966,0.07614 0,0.179145 -0.03135,0.541913 -0.02687,0.362769 -0.02687,0.546392 0,0.219453 0.12988,0.219453 0.156752,0 0.474734,-0.01344 0.317982,-0.01344 0.479213,-0.01344 0.09853,0 0.09853,0.06718 0,0.103009 -0.02239,0.309025 -0.02239,0.206017 -0.02239,0.309025 0,0.107487 0.0045,0.313504 0.0045,0.206017 0.0045,0.313503 0,0.09405 -0.12988,0.09405 -0.08957,0 -0.300067,-0.0045 -0.210496,-0.009 -0.300068,-0.009 H 41.72674 q -0.06718,0 -0.06718,0.197059 0,0.107487 0,0.317982 0.0045,0.214974 0.0045,0.317983 0,0.376204 0.08509,0.51952 0.120923,0.192581 0.474734,0.192581 0.111966,0 0.317983,-0.04927 0.210495,-0.05374 0.295589,-0.05374 0.09405,0 0.09405,0.09853 z m 3.119355,-2.310969 q 0,0.04479 -0.06718,0.120922 -0.125402,-0.03135 -0.250803,-0.03135 -0.264239,0 -0.443384,0.116444 -0.214974,0.134359 -0.214974,0.380683 0,0.156752 0.22841,0.398598 0.344854,0.362768 0.425469,0.48817 0.22841,0.340375 0.22841,0.730015 0,0.22841 -0.08957,0.483691 -0.103009,0.282154 -0.259761,0.412034 -0.331418,0.286632 -0.774801,0.483691 -0.479213,0.206017 -0.882289,0.206017 -0.08957,0 -0.403076,-0.483692 -0.309025,-0.48817 -0.309025,-0.595656 0,-0.04031 0.04926,-0.04927 0.313503,-0.05822 0.631485,-0.116445 0.394119,-0.125401 0.394119,-0.412033 0,-0.197059 -0.228409,-0.456819 -0.407555,-0.452341 -0.42547,-0.479213 -0.228409,-0.322461 -0.228409,-0.680751 0,-0.671793 0.68075,-1.142049 0.609093,-0.416512 1.30328,-0.416512 0.07166,0 0.353811,0.483692 0.282153,0.479212 0.282153,0.559828 z m 3.638874,0.676272 q -0.0045,0 -0.273196,-0.07166 -0.264239,-0.07166 -0.429948,-0.07166 -0.398598,0 -0.635965,0.241845 -0.237367,0.237367 -0.237367,0.635965 0,0.412033 0.259761,0.6494 0.25976,0.232889 0.676272,0.232889 0.197059,0 0.443383,-0.09853 0.246325,-0.103008 0.232889,-0.103008 0.07614,0 0.197059,0.568785 0.103009,0.51952 0.103009,0.689708 0,0.170187 -0.55535,0.29111 -0.429948,0.09405 -0.694186,0.09405 -0.985297,0 -1.625741,-0.662836 -0.640443,-0.662836 -0.640443,-1.652612 0,-0.980818 0.640443,-1.648133 0.644922,-0.671794 1.625741,-0.671794 0.667315,0 1.173399,0.286632 0.116444,0.0627 0.116444,0.120923 0,0.05822 -0.134359,0.528478 -0.125401,0.45234 -0.165709,0.546392 -0.03583,0.09405 -0.07614,0.09405 z m 5.349708,-0.300068 -0.009,3.09025 q 0,0.156752 -0.125402,0.174666 -0.143316,0.01792 -0.653879,0.01792 -0.492648,0 -0.685229,-0.03583 -0.147795,-0.02687 -0.147795,-0.192581 0,-0.385162 0.01344,-1.159964 0.01344,-0.774801 0.01344,-1.159963 0,-0.523999 -0.532956,-0.523999 -0.179145,0 -0.420991,0.143316 -0.264239,0.156752 -0.264239,0.32694 v 1.10622 q 0,0.214973 0.009,0.6494 0.009,0.429948 0.009,0.644922 0,0.165709 -0.138837,0.183623 -0.138838,0.01792 -0.779281,0.01792 -0.367247,0 -0.528477,-0.03583 -0.161231,-0.03583 -0.161231,-0.156752 0,-0.353811 0.0045,-1.061434 0.0045,-0.712101 0.0045,-1.065912 0,-1.46451 -0.03135,-2.422935 -0.01344,-0.335897 -0.02239,-0.671794 -0.02239,-0.38964 -0.08061,-0.667315 -0.01344,-0.05822 -0.01344,-0.08509 0,-0.06718 0.06718,-0.08957 0.138838,-0.04031 0.407555,-0.04927 0.35829,-0.01344 0.416512,-0.02239 0.810631,-0.09405 0.810631,-0.09405 0.07166,0 0.07166,0.09405 0,0.143316 -0.01792,0.38964 -0.01791,0.286632 -0.01791,0.389641 -0.02687,1.012168 -0.02687,1.598868 0,0.08957 0.04479,0.08957 0.009,0 0.22841,-0.156751 0.25976,-0.183624 0.497127,-0.291111 0.353811,-0.156752 0.685229,-0.156752 0.573264,0 0.958426,0.300068 0.416512,0.322461 0.416512,0.882289 z m 3.956855,-0.201538 q 0,0.138837 -0.0627,0.362768 -0.05374,0.179145 -0.103009,0.362769 -0.01791,0.223931 -0.08509,0.6494 -0.01344,0.0627 -0.107487,0.0627 -0.170187,0 -0.515041,-0.0045 -0.340376,-0.0045 -0.515042,-0.0045 -0.470255,0 -1.262972,0.08509 -0.04479,0.0045 -0.241845,0.03583 -0.156752,0.02687 -0.246324,0.02687 -0.116445,0 -0.116445,-0.219452 0,-0.116445 0.152273,-0.649401 0.147795,-0.506084 0.214974,-0.653879 0.03135,-0.07166 0.116445,-0.07166 0.174666,0 0.523999,0.01792 0.349332,0.01791 0.523998,0.01791 0.367248,0 1.213707,-0.107487 0.443384,-0.05822 0.416512,-0.05822 0.09405,0 0.09405,0.147795 z"
         id="path63" /><path
         d="m 65.049083,70.83591 q 0,0.824067 -0.515042,1.365981 -0.586699,0.622528 -2.060166,0.622528 -0.111966,0 -0.322461,-0.0045 -0.214974,0 -0.317982,0 -1.652612,0 -1.966116,-0.06718 -0.12988,-0.02687 -0.12988,-0.138837 0,-0.479213 0.05374,-1.451074 0.05822,-0.971861 0.05822,-1.455553 0,-0.51952 -0.05374,-1.952679 -0.01344,-0.367247 -0.04927,-1.101742 l -0.0045,-0.0627 q -0.0045,-0.08509 0.138838,-0.103009 0.147794,-0.01791 1.03904,-0.01791 1.428681,0 1.670527,0.009 1.101741,0.04031 1.62574,0.35829 0.694187,0.425469 0.694187,1.437638 0,0.264239 -0.161231,0.559828 -0.116444,0.210495 -0.304546,0.42099 -0.165709,0.183624 -0.165709,0.170188 0,0.03135 0.116444,0.09853 0.313504,0.179145 0.492649,0.568785 0.16123,0.349333 0.16123,0.743451 z m -1.925808,-2.521464 q 0,-0.385162 -0.385162,-0.510563 -0.214974,-0.06718 -0.707622,-0.06718 -0.483691,0 -0.483691,0.07166 0,0.08509 -0.01791,0.25976 -0.01344,0.170188 -0.01344,0.255282 0,0.447862 0.07614,0.501606 0.04926,0.04031 0.568785,0.04031 0.962904,0 0.962904,-0.55087 z m 0.134359,2.50355 q 0,-0.403076 -0.335897,-0.546392 -0.214974,-0.08957 -0.698665,-0.08957 -0.577743,0 -0.627008,0.04479 -0.04926,0.04031 -0.04926,0.546392 0,0.528477 0.05822,0.586699 0.05822,0.05374 0.644921,0.05374 0.483692,0 0.680751,-0.07614 0.32694,-0.12988 0.32694,-0.51952 z"
         id="path64" /><path
         d="m 70.224128,68.699607 q 0,0.331418 -0.03135,0.994255 -0.03135,0.662836 -0.03135,0.994254 0,0.322461 0.02239,0.967382 0.02239,0.644922 0.02239,0.962904 0,0.120923 -0.111965,0.152274 -0.170188,0.04479 -0.721059,0.04479 -0.48817,0 -0.68075,-0.02687 -0.08509,-0.01344 -0.107487,-0.107487 -0.01344,-0.134358 -0.02687,-0.268717 -0.02239,-0.206017 -0.0627,-0.206017 0.0627,0 -0.452341,0.304547 -0.515041,0.304546 -0.936032,0.304546 -1.186835,0 -1.406288,-1.070391 -0.09853,-0.497127 -0.09853,-1.442117 0,-1.021126 0.165709,-1.612304 0.04926,-0.183624 0.183623,-0.183624 0.206017,0 0.627007,0.0045 0.420991,0.0045 0.627008,0.0045 0.138837,0 0.138837,0.116444 0,0.03135 -0.009,0.09405 -0.09405,0.609093 -0.09405,1.2361 0,0.77928 0.04926,1.065912 0.08062,0.492649 0.586699,0.492649 0.19706,0 0.425469,-0.174667 0.232889,-0.174666 0.241846,-0.362768 0.009,-0.165709 0.009,-2.248269 0,-0.147794 0.02239,-0.174666 0.02687,-0.04479 0.161231,-0.04479 0.219452,0 0.658357,0.0045 0.443384,0.0045 0.662837,0.0045 0.134358,0 0.156751,0.06718 0.009,0.03583 0.009,0.107487 z m 2.398295,1.374938 q 0,1.222664 0.009,1.876543 0,0.103008 0.01344,0.353811 0.01344,0.22841 0.01344,0.353811 0,0.09405 -0.111966,0.111966 -0.201538,0.03583 -0.725537,0.03583 -0.537435,0 -0.685229,-0.03583 -0.09853,-0.02239 -0.111966,-0.120923 0,-0.01344 0,-0.192581 0,-0.398597 0.009,-1.191314 0.009,-0.797195 0.009,-1.191313 0,-1.881022 0.0045,-1.715313 -0.01344,-0.989776 -0.111965,-1.706356 -0.009,-0.04926 -0.009,-0.07614 0,-0.09853 0.116445,-0.09853 h 1.598868 q 0.111966,0 0.103008,0.09405 l -0.0045,0.08062 q -0.116444,1.934766 -0.116444,3.421669 z m 5.309402,1.531689 q 0,1.276407 -0.537435,1.831757 -0.555349,0.568785 -1.845193,0.568785 -0.376204,0 -1.025604,-0.120923 -0.828546,-0.152273 -0.828546,-0.35829 0,-0.08509 0.192581,-0.87781 0.03135,-0.125402 0.09853,-0.125402 0.02239,0.0045 0.04926,0.01792 0.689708,0.340375 1.276407,0.340375 0.322461,0 0.640443,-0.16123 0.385162,-0.192581 0.385162,-0.483691 v -0.300068 q -0.45682,0.429948 -1.173399,0.429948 -0.841982,0 -1.383895,-0.604615 -0.523999,-0.582221 -0.523999,-1.433159 0,-0.855417 0.501606,-1.419724 0.523999,-0.586699 1.370459,-0.586699 0.676272,0 1.034562,0.483691 0.07166,0.09853 0.09853,0.09853 0.04031,0 0.04031,-0.161231 0,-0.358289 0.08061,-0.358289 0.07166,0 0.774802,0.07614 0.703144,0.07166 0.730016,0.08062 0.07614,0.02687 0.07614,0.116445 0,0.309025 -0.02239,0.922596 -0.01791,0.613571 -0.01791,0.922596 0,0.183624 0.0045,0.550871 0.0045,0.367247 0.0045,0.550871 z m -1.549604,-1.240579 q 0,-0.326939 -0.219452,-0.564306 -0.214974,-0.241846 -0.541914,-0.241846 -0.326939,0 -0.546392,0.246324 -0.214974,0.241846 -0.214974,0.568785 0,0.32694 0.219453,0.564307 0.223931,0.237367 0.541913,0.237367 0.32694,0 0.541914,-0.241846 0.219452,-0.241845 0.219452,-0.568785 z m 6.854525,0.165709 q 0,0.344854 0.04031,1.025605 0.04031,0.680751 0.04031,1.021126 0,0.179145 -0.156752,0.192581 -0.555349,0.04031 -1.271929,0.04031 -0.08509,0 -0.116444,-0.255281 -0.02687,-0.25976 -0.06718,-0.264239 -0.03583,0.01791 -0.09405,0.07614 -0.501606,0.506084 -1.074869,0.506084 -0.873332,0 -1.446596,-0.689708 -0.541913,-0.644922 -0.541913,-1.540646 0,-1.034562 0.559828,-1.666048 0.582221,-0.653879 1.59439,-0.653879 0.703144,0 1.110698,0.492648 0.01792,0.02239 0.03135,0.02239 0.04031,0 0.08957,-0.214974 0.05374,-0.219453 0.125402,-0.219453 0.165709,0 0.631485,0.09405 0.443384,0.08957 0.635965,0.152273 0.06718,0.02687 0.06718,0.07166 0,0.01792 -0.01344,0.09405 -0.143316,0.810631 -0.143316,1.715313 z m -1.442116,0.02687 q 0,-0.380683 -0.241846,-0.627007 -0.237367,-0.250803 -0.622528,-0.250803 -0.385162,0 -0.622529,0.246324 -0.237367,0.246324 -0.237367,0.631486 0,0.362768 0.250803,0.622528 0.250803,0.259761 0.609093,0.259761 0.380683,0 0.622528,-0.246325 0.241846,-0.250803 0.241846,-0.635964 z m 5.331791,-0.577743 q 0,0.174667 -0.192581,0.174667 -0.08509,0 -0.250803,-0.009 -0.16123,-0.01344 -0.241845,-0.01344 -0.371726,0 -0.506085,0.116444 -0.134358,0.116444 -0.134358,0.470255 0,0.192581 0.0045,0.5867 0.009,0.38964 0.009,0.582221 0,0.12988 0.01791,0.38964 0.01792,0.255282 0.01792,0.380683 0,0.107487 -0.147795,0.120923 -0.214974,0.01791 -0.658358,0.01791 -0.425469,0 -0.68075,-0.02687 -0.147795,-0.01791 -0.147795,-0.147795 0,-0.35829 0.0045,-1.070391 0.0045,-0.71658 0.0045,-1.074869 0,-1.052477 -0.19258,-1.733228 -0.009,-0.04031 -0.009,-0.06718 0,-0.06718 0.06718,-0.08957 0.246324,-0.02687 0.721058,-0.09853 0.707622,-0.138837 0.730016,-0.138837 0.08062,0 0.103008,0.282153 0.02239,0.282153 0.08061,0.282153 -0.0627,0 0.367247,-0.232888 0.429948,-0.237367 0.828546,-0.237367 0.250802,0 0.250802,0.107487 0,0.12988 -0.02687,0.367247 -0.02687,0.255281 -0.03135,0.367247 0,0.12988 0.0045,0.344854 0.009,0.264239 0.009,0.349332 z m 2.326642,-2.593122 q 0,0.77928 -0.87781,0.77928 -0.376204,0 -0.622529,-0.197059 -0.268717,-0.214974 -0.268717,-0.582221 0,-0.349333 0.277675,-0.573264 0.255281,-0.206017 0.613571,-0.206017 0.349332,0 0.604614,0.210495 0.273196,0.223932 0.273196,0.568786 z m -0.116444,3.327617 q 0,0.326939 0.01344,0.976339 0.01344,0.644922 0.01344,0.967383 0,0.09405 -0.111966,0.111966 -0.152273,0.02687 -0.685229,0.02687 -0.537435,0 -0.689708,-0.02687 -0.09853,-0.01791 -0.120923,-0.05822 -0.009,-0.01791 -0.009,-0.134359 0,-0.309025 0.01344,-0.927075 0.01344,-0.622529 0.01344,-0.936032 0,-1.271929 -0.09853,-2.024338 -0.009,-0.07166 -0.009,-0.09405 0,-0.08957 0.120923,-0.08957 0.125402,0 0.380683,0.02687 0.25976,0.02687 0.38964,0.02687 0.12988,0 0.389641,-0.02239 0.25976,-0.02239 0.38964,-0.02239 0.107487,0 0.107487,0.08957 0,0.01791 -0.009,0.08509 -0.09853,0.873331 -0.09853,2.024338 z M 92.85009,69.14747 q 0,0.04479 -0.06718,0.120922 -0.125401,-0.03135 -0.250803,-0.03135 -0.264239,0 -0.443384,0.116444 -0.214973,0.134359 -0.214973,0.380683 0,0.156752 0.228409,0.398598 0.344854,0.362768 0.42547,0.48817 0.228409,0.340375 0.228409,0.730015 0,0.22841 -0.08957,0.483691 -0.103008,0.282154 -0.25976,0.412034 -0.331418,0.286632 -0.774802,0.483691 -0.479213,0.206017 -0.882289,0.206017 -0.08957,0 -0.403076,-0.483692 -0.309025,-0.48817 -0.309025,-0.595656 0,-0.04031 0.04927,-0.04927 0.313504,-0.05822 0.631486,-0.116445 0.394119,-0.125401 0.394119,-0.412033 0,-0.197059 -0.22841,-0.456819 -0.407555,-0.452341 -0.425469,-0.479213 -0.22841,-0.322461 -0.22841,-0.680751 0,-0.671793 0.680751,-1.142049 0.609092,-0.416512 1.303279,-0.416512 0.07166,0 0.353811,0.483692 0.282153,0.479212 0.282153,0.559828 z m 3.638876,0.676272 q -0.0045,0 -0.273196,-0.07166 -0.264239,-0.07166 -0.429948,-0.07166 -0.398597,0 -0.635964,0.241845 -0.237367,0.237367 -0.237367,0.635965 0,0.412033 0.25976,0.6494 0.25976,0.232889 0.676272,0.232889 0.197059,0 0.443384,-0.09853 0.246324,-0.103008 0.232888,-0.103008 0.07614,0 0.197059,0.568785 0.103009,0.51952 0.103009,0.689708 0,0.170187 -0.55535,0.29111 -0.429947,0.09405 -0.694186,0.09405 -0.985297,0 -1.62574,-0.662836 -0.640443,-0.662836 -0.640443,-1.652612 0,-0.980818 0.640443,-1.648133 0.644921,-0.671794 1.62574,-0.671794 0.667315,0 1.173399,0.286632 0.116444,0.0627 0.116444,0.120923 0,0.05822 -0.134358,0.528478 -0.125402,0.45234 -0.165709,0.546392 -0.03583,0.09405 -0.07614,0.09405 z m 5.349704,-0.300068 -0.009,3.09025 q 0,0.156752 -0.1254,0.174666 -0.14331,0.01792 -0.65388,0.01792 -0.49265,0 -0.68523,-0.03583 -0.14779,-0.02687 -0.14779,-0.192581 0,-0.385162 0.0134,-1.159964 0.0134,-0.774801 0.0134,-1.159963 0,-0.523999 -0.532956,-0.523999 -0.179145,0 -0.42099,0.143316 -0.264239,0.156752 -0.264239,0.32694 v 1.10622 q 0,0.214973 0.009,0.6494 0.009,0.429948 0.009,0.644922 0,0.165709 -0.138837,0.183623 -0.138837,0.01792 -0.77928,0.01792 -0.367248,0 -0.528478,-0.03583 -0.16123,-0.03583 -0.16123,-0.156752 0,-0.353811 0.0045,-1.061434 0.0045,-0.712101 0.0045,-1.065912 0,-1.46451 -0.03135,-2.422935 -0.01344,-0.335897 -0.02239,-0.671794 -0.02239,-0.38964 -0.08061,-0.667315 -0.01344,-0.05822 -0.01344,-0.08509 0,-0.06718 0.06718,-0.08957 0.138837,-0.04031 0.407554,-0.04927 0.35829,-0.01344 0.416512,-0.02239 0.810631,-0.09405 0.810631,-0.09405 0.07166,0 0.07166,0.09405 0,0.143316 -0.01791,0.38964 -0.01792,0.286632 -0.01792,0.389641 -0.02687,1.012168 -0.02687,1.598868 0,0.08957 0.04479,0.08957 0.009,0 0.228409,-0.156751 0.259761,-0.183624 0.497128,-0.291111 0.353806,-0.156752 0.685226,-0.156752 0.57327,0 0.95843,0.300068 0.41651,0.322461 0.41651,0.882289 z m 4.86154,0.815109 q 0,0.452341 -0.29111,0.515042 -0.0493,0.009 -0.92707,0.09853 -0.52848,0.05822 -1.57648,0.138837 0.0627,0.29111 0.38069,0.443384 0.25976,0.125401 0.59117,0.125401 0.3986,0 0.80168,-0.214974 0.17018,-0.107487 0.34037,-0.214974 0.0941,0.04479 0.31351,0.45682 0.22393,0.412033 0.22393,0.523999 0,0.03135 -0.0672,0.103008 -0.54639,0.5867 -1.6974,0.5867 -1.06591,0 -1.71979,-0.622529 -0.67179,-0.631486 -0.67179,-1.688441 0,-1.030083 0.60013,-1.688441 0.61805,-0.68075 1.63918,-0.68075 0.85989,0 1.46003,0.627007 0.60013,0.627007 0.60013,1.491381 z m -1.56751,-0.273196 q 0,-0.277674 -0.19706,-0.48817 -0.19706,-0.210495 -0.47026,-0.210495 -0.28215,0 -0.46578,0.237367 -0.17018,0.219453 -0.17018,0.515042 0,0.120923 0.1254,0.120923 0.33142,0 1.03008,-0.103009 0.1478,-0.02239 0.1478,-0.07166 z"
         id="path65" /><path
         d="m 115.46934,72.62736 q 0.009,0.120923 -0.1254,0.120923 -0.0851,0 -0.49265,-0.09853 -0.40308,-0.09853 -0.49713,-0.134359 -0.93603,0.367247 -1.79592,0.367247 -1.3839,0 -2.27067,-0.922596 -0.87781,-0.909161 -0.87781,-2.297534 0,-1.419723 0.85094,-2.355756 0.87781,-0.967382 2.27962,-0.967382 0.68075,0 1.28089,0.25976 0.6494,0.286632 1.02112,0.806152 0.0761,0.107487 0.0761,0.152273 0,0.143316 -0.40308,0.644922 -0.39859,0.497127 -0.51504,0.497127 -0.0269,0 -0.20601,-0.183623 -0.21946,-0.219453 -0.44787,-0.340376 -0.34037,-0.183623 -0.75241,-0.183623 -0.67179,0 -1.06591,0.501606 -0.36725,0.461298 -0.36725,1.151006 0,0.730015 0.38069,1.155484 0.39412,0.438906 1.11517,0.438906 0.45682,0 1.02113,-0.22841 -0.0134,-0.147795 -0.0806,-0.752409 -0.0582,-0.465777 -0.0582,-0.752409 0,-0.08509 0.0582,-0.103008 0.0224,-0.009 0.0717,-0.009 0.12988,0 0.38964,0.02687 0.26424,0.02239 0.3986,0.02239 0.14332,0 0.42995,-0.01792 0.28663,-0.02239 0.42995,-0.02239 0.11196,0 0.11196,0.147795 0,0.214974 -0.0269,0.6494 -0.0224,0.434426 -0.0224,0.6494 0,0.577743 0.0851,1.728749 z"
         id="path66" /><path
         d="m 120.19652,70.338783 q 0,0.452341 -0.29111,0.515042 -0.0493,0.009 -0.92707,0.09853 -0.52848,0.05822 -1.57648,0.138837 0.0627,0.29111 0.38068,0.443384 0.25976,0.125401 0.59118,0.125401 0.3986,0 0.80167,-0.214974 0.17019,-0.107487 0.34038,-0.214974 0.094,0.04479 0.3135,0.45682 0.22393,0.412033 0.22393,0.523999 0,0.03135 -0.0672,0.103008 -0.5464,0.5867 -1.6974,0.5867 -1.06592,0 -1.71979,-0.622529 -0.6718,-0.631486 -0.6718,-1.688441 0,-1.030083 0.60014,-1.688441 0.61805,-0.68075 1.63917,-0.68075 0.8599,0 1.46004,0.627007 0.60013,0.627007 0.60013,1.491381 z M 118.629,70.065587 q 0,-0.277674 -0.19706,-0.48817 -0.19706,-0.210495 -0.47025,-0.210495 -0.28216,0 -0.46578,0.237367 -0.17019,0.219453 -0.17019,0.515042 0,0.120923 0.1254,0.120923 0.33142,0 1.03009,-0.103009 0.14779,-0.02239 0.14779,-0.07166 z m 4.70926,-0.918117 q 0,0.04479 -0.0672,0.120922 -0.12541,-0.03135 -0.25081,-0.03135 -0.26424,0 -0.44338,0.116444 -0.21497,0.134359 -0.21497,0.380683 0,0.156752 0.2284,0.398598 0.34486,0.362768 0.42547,0.48817 0.22841,0.340375 0.22841,0.730015 0,0.22841 -0.0896,0.483691 -0.10301,0.282154 -0.25976,0.412034 -0.33142,0.286632 -0.7748,0.483691 -0.47921,0.206017 -0.88229,0.206017 -0.0896,0 -0.40308,-0.483692 -0.30902,-0.48817 -0.30902,-0.595656 0,-0.04031 0.0493,-0.04927 0.31351,-0.05822 0.63149,-0.116445 0.39412,-0.125401 0.39412,-0.412033 0,-0.197059 -0.22841,-0.456819 -0.40756,-0.452341 -0.42547,-0.479213 -0.22841,-0.322461 -0.22841,-0.680751 0,-0.671793 0.68075,-1.142049 0.60909,-0.416512 1.30328,-0.416512 0.0717,0 0.35381,0.483692 0.28215,0.479212 0.28215,0.559828 z m 4.77645,1.191313 q 0,0.452341 -0.29111,0.515042 -0.0493,0.009 -0.92707,0.09853 -0.52848,0.05822 -1.57648,0.138837 0.0627,0.29111 0.38068,0.443384 0.25976,0.125401 0.59118,0.125401 0.3986,0 0.80167,-0.214974 0.17019,-0.107487 0.34038,-0.214974 0.094,0.04479 0.3135,0.45682 0.22393,0.412033 0.22393,0.523999 0,0.03135 -0.0672,0.103008 -0.5464,0.5867 -1.6974,0.5867 -1.06592,0 -1.71979,-0.622529 -0.6718,-0.631486 -0.6718,-1.688441 0,-1.030083 0.60014,-1.688441 0.61805,-0.68075 1.63917,-0.68075 0.8599,0 1.46004,0.627007 0.60013,0.627007 0.60013,1.491381 z m -1.56752,-0.273196 q 0,-0.277674 -0.19706,-0.48817 -0.19706,-0.210495 -0.47025,-0.210495 -0.28216,0 -0.46578,0.237367 -0.17019,0.219453 -0.17019,0.515042 0,0.120923 0.1254,0.120923 0.33142,0 1.03009,-0.103009 0.14779,-0.02239 0.14779,-0.07166 z m 3.7195,0.009 q 0,1.222664 0.009,1.876543 0,0.103008 0.0134,0.353811 0.0134,0.22841 0.0134,0.353811 0,0.09405 -0.11197,0.111966 -0.20154,0.03583 -0.72554,0.03583 -0.53743,0 -0.68523,-0.03583 -0.0985,-0.02239 -0.11196,-0.120923 0,-0.01344 0,-0.192581 0,-0.398597 0.009,-1.191314 0.009,-0.797195 0.009,-1.191313 0,-1.881022 0.004,-1.715313 -0.0134,-0.989776 -0.11196,-1.706356 -0.009,-0.04926 -0.009,-0.07614 0,-0.09853 0.11644,-0.09853 h 1.59887 q 0.11197,0 0.10301,0.09405 l -0.004,0.08062 q -0.11644,1.934766 -0.11644,3.421669 z m 2.47891,0 q 0,1.222664 0.009,1.876543 0,0.103008 0.0134,0.353811 0.0134,0.22841 0.0134,0.353811 0,0.09405 -0.11197,0.111966 -0.20154,0.03583 -0.72553,0.03583 -0.53744,0 -0.68523,-0.03583 -0.0985,-0.02239 -0.11197,-0.120923 0,-0.01344 0,-0.192581 0,-0.398597 0.009,-1.191314 0.009,-0.797195 0.009,-1.191313 0,-1.881022 0.004,-1.715313 -0.0134,-0.989776 -0.11196,-1.706356 -0.009,-0.04926 -0.009,-0.07614 0,-0.09853 0.11645,-0.09853 h 1.59886 q 0.11197,0 0.10301,0.09405 l -0.004,0.08062 q -0.11644,1.934766 -0.11644,3.421669 z m 3.46868,-0.927075 q 0,0.04479 -0.0672,0.120922 -0.1254,-0.03135 -0.2508,-0.03135 -0.26424,0 -0.44339,0.116444 -0.21497,0.134359 -0.21497,0.380683 0,0.156752 0.22841,0.398598 0.34485,0.362768 0.42547,0.48817 0.22841,0.340375 0.22841,0.730015 0,0.22841 -0.0896,0.483691 -0.10301,0.282154 -0.25976,0.412034 -0.33142,0.286632 -0.77481,0.483691 -0.47921,0.206017 -0.88228,0.206017 -0.0896,0 -0.40308,-0.483692 -0.30903,-0.48817 -0.30903,-0.595656 0,-0.04031 0.0493,-0.04927 0.3135,-0.05822 0.63148,-0.116445 0.39412,-0.125401 0.39412,-0.412033 0,-0.197059 -0.22841,-0.456819 -0.40755,-0.452341 -0.42547,-0.479213 -0.2284,-0.322461 -0.2284,-0.680751 0,-0.671793 0.68075,-1.142049 0.60909,-0.416512 1.30328,-0.416512 0.0717,0 0.35381,0.483692 0.28215,0.479212 0.28215,0.559828 z m 3.63888,0.676272 q -0.004,0 -0.2732,-0.07166 -0.26424,-0.07166 -0.42995,-0.07166 -0.3986,0 -0.63596,0.241845 -0.23737,0.237367 -0.23737,0.635965 0,0.412033 0.25976,0.6494 0.25976,0.232889 0.67627,0.232889 0.19706,0 0.44339,-0.09853 0.24632,-0.103008 0.23288,-0.103008 0.0761,0 0.19706,0.568785 0.10301,0.51952 0.10301,0.689708 0,0.170187 -0.55535,0.29111 -0.42995,0.09405 -0.69418,0.09405 -0.9853,0 -1.62574,-0.662836 -0.64045,-0.662836 -0.64045,-1.652612 0,-0.980818 0.64045,-1.648133 0.64492,-0.671794 1.62574,-0.671794 0.66731,0 1.1734,0.286632 0.11644,0.0627 0.11644,0.120923 0,0.05822 -0.13436,0.528478 -0.1254,0.45234 -0.16571,0.546392 -0.0358,0.09405 -0.0761,0.09405 z m 5.34971,-0.300068 -0.009,3.09025 q 0,0.156752 -0.1254,0.174666 -0.14332,0.01792 -0.65388,0.01792 -0.49265,0 -0.68523,-0.03583 -0.14779,-0.02687 -0.14779,-0.192581 0,-0.385162 0.0134,-1.159964 0.0134,-0.774801 0.0134,-1.159963 0,-0.523999 -0.53296,-0.523999 -0.17914,0 -0.42099,0.143316 -0.26424,0.156752 -0.26424,0.32694 v 1.10622 q 0,0.214973 0.009,0.6494 0.009,0.429948 0.009,0.644922 0,0.165709 -0.13884,0.183623 -0.13884,0.01792 -0.77928,0.01792 -0.36725,0 -0.52848,-0.03583 -0.16123,-0.03583 -0.16123,-0.156752 0,-0.353811 0.004,-1.061434 0.004,-0.712101 0.004,-1.065912 0,-1.46451 -0.0314,-2.422935 -0.0134,-0.335897 -0.0224,-0.671794 -0.0224,-0.38964 -0.0806,-0.667315 -0.0134,-0.05822 -0.0134,-0.08509 0,-0.06718 0.0672,-0.08957 0.13884,-0.04031 0.40756,-0.04927 0.35829,-0.01344 0.41651,-0.02239 0.81063,-0.09405 0.81063,-0.09405 0.0717,0 0.0717,0.09405 0,0.143316 -0.0179,0.38964 -0.0179,0.286632 -0.0179,0.389641 -0.0269,1.012168 -0.0269,1.598868 0,0.08957 0.0448,0.08957 0.009,0 0.22841,-0.156751 0.25976,-0.183624 0.49713,-0.291111 0.35381,-0.156752 0.68523,-0.156752 0.57326,0 0.95843,0.300068 0.41651,0.322461 0.41651,0.882289 z m 5.26013,1.00769 q 0,0.344854 0.0403,1.025605 0.0403,0.680751 0.0403,1.021126 0,0.179145 -0.15676,0.192581 -0.55535,0.04031 -1.27193,0.04031 -0.0851,0 -0.11644,-0.255281 -0.0269,-0.25976 -0.0672,-0.264239 -0.0358,0.01791 -0.0941,0.07614 -0.50161,0.506084 -1.07487,0.506084 -0.87333,0 -1.4466,-0.689708 -0.54191,-0.644922 -0.54191,-1.540646 0,-1.034562 0.55983,-1.666048 0.58222,-0.653879 1.59439,-0.653879 0.70314,0 1.1107,0.492648 0.0179,0.02239 0.0314,0.02239 0.0403,0 0.0896,-0.214974 0.0537,-0.219453 0.1254,-0.219453 0.16571,0 0.63149,0.09405 0.44338,0.08957 0.63596,0.152273 0.0672,0.02687 0.0672,0.07166 0,0.01792 -0.0134,0.09405 -0.14332,0.810631 -0.14332,1.715313 z m -1.44212,0.02687 q 0,-0.380683 -0.24184,-0.627007 -0.23737,-0.250803 -0.62253,-0.250803 -0.38516,0 -0.62253,0.246324 -0.23737,0.246324 -0.23737,0.631486 0,0.362768 0.25081,0.622528 0.2508,0.259761 0.60909,0.259761 0.38068,0 0.62253,-0.246325 0.24184,-0.250803 0.24184,-0.635964 z m 5.11682,-0.676272 q 0,0.107487 -0.11644,0.107487 -0.48369,0 -0.76137,-0.02687 0.0134,0.335897 0.0269,0.936032 0.004,0.255282 0.0403,0.886768 0.0314,0.568785 0.0314,0.886767 0,0.09405 -0.1254,0.107487 -0.15227,0.01791 -0.76137,0.01791 -0.50608,0 -0.65835,-0.02687 -0.15228,-0.02687 -0.15228,-0.183624 V 70.11937 q 0,-0.12988 -0.17914,-0.12988 -0.0314,0 -0.10301,0.0045 -0.0672,0.0045 -0.0985,0.0045 -0.1254,0 -0.12988,-0.07166 -0.0403,-0.38964 -0.0403,-1.133092 0,-0.165709 0.17019,-0.201538 0.15227,-0.01344 0.30902,-0.02239 -0.0224,-0.35829 -0.0224,-0.559828 0,-0.770323 0.30007,-1.119656 0.59566,-0.694186 1.92581,-0.694186 0.0896,0 0.10748,0.05374 0.0358,0.201538 0.10301,0.595657 0.004,0.03583 0.0582,0.250803 0.0403,0.165709 0.0403,0.255282 0,0.107487 -0.31798,0.138837 -0.36725,0.04031 -0.45234,0.134359 -0.1478,0.16123 -0.1478,0.631486 0,0.147794 0.0224,0.277674 0.1254,0 0.38964,-0.009 0.26424,-0.009 0.39859,-0.009 0.13436,0 0.13436,0.09853 0,0.210496 0.004,0.635965 0.004,0.42099 0.004,0.631486 z m 3.509,1.576475 q 0,0.134359 -0.0358,0.407555 -0.0314,0.273196 -0.0314,0.403076 0,0.125401 -0.0269,0.16123 -0.0269,0.03583 -0.1478,0.103009 -0.57774,0.317982 -1.28088,0.317982 -1.29433,0 -1.29433,-0.989776 0,-0.295589 0.0224,-0.886767 0.0224,-0.595657 0.0224,-0.891246 0,-0.19706 -0.22841,-0.19706 -0.0179,0 -0.0582,0 -0.0403,0.0045 -0.0582,0.0045 -0.17019,0 -0.17019,-0.120923 0,-0.07166 0.009,-0.219452 0.0134,-0.147795 0.0134,-0.219453 0,-0.09405 -0.0134,-0.286632 -0.009,-0.192581 -0.009,-0.286632 0,-0.08957 0.28663,-0.09853 0.16123,-0.0045 0.17467,-0.08957 0.0269,-0.170188 0.0179,-0.537435 -0.0179,-0.577742 -0.0179,-0.55087 0,-0.519521 0.0985,-0.519521 0.12092,0 0.34485,0.05374 0.25528,0.05822 0.35381,0.06718 0.22841,0.03135 0.68971,0.08509 0.11196,0.009 0.11196,0.07614 0,0.179145 -0.0313,0.541913 -0.0269,0.362769 -0.0269,0.546392 0,0.219453 0.12988,0.219453 0.15675,0 0.47474,-0.01344 0.31798,-0.01344 0.47921,-0.01344 0.0985,0 0.0985,0.06718 0,0.103009 -0.0224,0.309025 -0.0224,0.206017 -0.0224,0.309025 0,0.107487 0.004,0.313504 0.004,0.206017 0.004,0.313503 0,0.09405 -0.12988,0.09405 -0.0896,0 -0.30007,-0.0045 -0.21049,-0.009 -0.30007,-0.009 h -0.33589 q -0.0672,0 -0.0672,0.197059 0,0.107487 0,0.317982 0.004,0.214974 0.004,0.317983 0,0.376204 0.0851,0.51952 0.12092,0.192581 0.47473,0.192581 0.11197,0 0.31799,-0.04927 0.21049,-0.05374 0.29559,-0.05374 0.0941,0 0.0941,0.09853 z m 6.92394,-1.119656 q 0,0.452341 -0.29111,0.515042 -0.0493,0.009 -0.92708,0.09853 -0.52848,0.05822 -1.57648,0.138837 0.0627,0.29111 0.38069,0.443384 0.25976,0.125401 0.59118,0.125401 0.39859,0 0.80167,-0.214974 0.17019,-0.107487 0.34038,-0.214974 0.094,0.04479 0.3135,0.45682 0.22393,0.412033 0.22393,0.523999 0,0.03135 -0.0672,0.103008 -0.54639,0.5867 -1.6974,0.5867 -1.06591,0 -1.71979,-0.622529 -0.67179,-0.631486 -0.67179,-1.688441 0,-1.030083 0.60013,-1.688441 0.61805,-0.68075 1.63918,-0.68075 0.85989,0 1.46003,0.627007 0.60014,0.627007 0.60014,1.491381 z m -1.56752,-0.273196 q 0,-0.277674 -0.19706,-0.48817 -0.19706,-0.210495 -0.47026,-0.210495 -0.28215,0 -0.46577,0.237367 -0.17019,0.219453 -0.17019,0.515042 0,0.120923 0.1254,0.120923 0.33142,0 1.03008,-0.103009 0.1478,-0.02239 0.1478,-0.07166 z m 4.04643,1.72427 q 0,0.443384 -0.30902,0.756888 -0.30455,0.313503 -0.74346,0.313503 -0.4389,0 -0.74345,-0.313503 -0.30454,-0.317983 -0.30454,-0.756888 0,-0.438905 0.30454,-0.752409 0.30455,-0.313503 0.74345,-0.313503 0.43891,0 0.74346,0.313503 0.30902,0.313504 0.30902,0.752409 z m 5.53108,0.998733 q -0.60461,0 -0.6897,-0.01791 -0.0851,-0.01791 -0.14332,-0.12988 -0.51056,-1.007691 -1.02561,-2.019859 -0.81063,-1.625741 -0.81063,-1.840715 0,-0.353811 0.0224,-1.061433 0.0269,-0.712101 0.0269,-1.065913 0,-0.165709 0.0896,-0.165709 0.26872,0 0.81511,0.02239 0.54639,0.02239 0.81959,0.02239 0.11196,0 0.11196,0.09405 0,0.362768 -0.0537,1.092784 -0.0493,0.725537 -0.0493,1.088305 0,0.277675 0.90916,1.98403 0.24632,-0.443383 0.55982,-1.088305 0.42099,-0.868853 0.42099,-1.065913 0,-0.326939 -0.009,-0.980818 -0.009,-0.658358 -0.009,-0.985297 0,-0.120923 0.0403,-0.134359 0,0 0.14331,0 0.24633,0 0.74346,-0.02239 0.5016,-0.02687 0.74793,-0.02687 0.13435,0 0.13435,0.107487 0,0.344854 -0.0134,1.04352 -0.009,0.694186 -0.009,1.043519 0,0.277674 -0.88229,2.042252 -0.34933,0.635964 -1.00769,1.916851 -0.0448,0.09853 -0.0627,0.111965 -0.0134,0.009 -0.11196,0.01791 -0.22841,0.01791 -0.70763,0.01791 z m 5.41242,-0.998733 q 0,0.443384 -0.30903,0.756888 -0.30454,0.313503 -0.74345,0.313503 -0.4389,0 -0.74345,-0.313503 -0.30455,-0.317983 -0.30455,-0.756888 0,-0.438905 0.30455,-0.752409 0.30455,-0.313503 0.74345,-0.313503 0.43891,0 0.74345,0.313503 0.30903,0.313504 0.30903,0.752409 z"
         id="path67" /></g><path
       d="m 103.68051,76.46231 c -0.67544,0.185049 -0.99927,0.222059 -2.25762,0.222059 -2.424158,0 -3.303148,0.259068 -4.200642,1.239843 l -0.471883,0.518136 -0.573656,-0.370097 c -0.823475,-0.527398 -1.258342,-0.638427 -2.165092,-0.536647 -1.332363,0.138789 -2.27612,0.518142 -4.034102,1.628445 -0.481132,0.296078 -1.091799,0.656925 -1.350869,0.795715 -0.518142,0.259073 -0.758708,0.536646 -0.851233,0.999274 -0.05551,0.249818 -0.120283,0.305333 -0.499637,0.416362 -0.240566,0.06477 -0.434869,0.148045 -0.434869,0.185054 0,0.101774 0.536647,1.017779 2.19285,3.710262 0.897495,1.461901 2.026304,3.303155 2.507435,4.08962 0.481132,0.786466 0.87899,1.443397 0.897496,1.461902 0.01849,0.01851 0.860483,-0.342349 1.878262,-0.804976 2.239117,-1.017773 3.858307,-1.683954 5.76432,-2.35014 1.20283,-0.434868 1.48966,-0.499637 1.76724,-0.444117 0.78646,0.185048 2.11883,-0.12954 2.95156,-0.684691 0.45337,-0.314583 0.7402,-0.379353 2.90529,-0.656926 0.20355,-0.02774 0.47188,-0.06477 0.60142,-0.08328 0.52739,-0.08327 4.71878,-0.601416 5.3202,-0.656931 0.36084,-0.02774 0.70319,-0.06477 0.76796,-0.07402 0.12027,-0.01851 0.23131,-1.165818 0.13879,-1.415637 -0.0277,-0.06477 -0.40712,-0.388607 -0.86048,-0.721695 -0.44413,-0.333093 -0.83274,-0.675436 -0.85124,-0.767966 -0.0277,-0.08327 -0.9345,-0.758705 -2.0263,-1.498905 -1.08255,-0.740206 -2.61847,-1.813499 -3.41419,-2.396405 -2.12808,-1.572937 -2.79426,-2.044813 -2.85903,-2.035558 -0.0277,0.0092 -0.40711,0.111029 -0.84198,0.231313 z m 4.64477,2.757253 c 2.05406,1.397132 3.81204,2.599959 3.91382,2.683234 0.1758,0.129534 0.12954,0.138789 -0.50889,0.148039 -1.87826,0.0093 -4.99637,0.286828 -5.90311,0.518142 -1.11031,0.286828 -2.23911,1.008529 -2.58146,1.64695 -0.0833,0.157294 -0.45337,-0.166544 -3.20138,-2.775758 l -3.10884,-2.951557 0.434867,-0.444123 c 0.536646,-0.545896 1.350872,-0.953009 2.146586,-1.082543 0.333094,-0.04625 1.369377,-0.09253 2.313127,-0.101779 0.94376,0 1.89678,-0.03702 2.12808,-0.07402 0.23132,-0.04625 0.46263,-0.08327 0.5274,-0.09253 0.0648,0 1.78574,1.128814 3.8398,2.525945 z M 95.492023,77.924212 c 0.86974,0.416362 1.600685,1.027028 4.320934,3.663997 l 2.720243,2.636974 -1.2491,0.06476 c -1.97078,0.09253 -3.136598,0.481132 -5.662543,1.896768 -1.471151,0.823481 -2.488929,1.350873 -2.535195,1.304607 -0.01851,-0.01851 -0.971512,-1.526665 -2.12808,-3.358663 -1.156566,-1.832005 -2.183596,-3.451194 -2.285374,-3.589984 -0.101778,-0.148039 -0.175798,-0.277573 -0.157293,-0.286828 0.01851,-0.01851 0.212808,-0.120284 0.425617,-0.231313 0.22206,-0.11103 0.740202,-0.425618 1.175072,-0.693941 0.425614,-0.277573 1.06404,-0.647676 1.415637,-0.832731 1.582182,-0.786459 3.053332,-1.008523 3.960082,-0.57365 z m -6.328731,3.830546 c 0.444122,0.693935 1.461899,2.303881 2.26687,3.580728 l 1.461902,2.313131 -0.02774,0.555151 c -0.0092,0.305339 -0.05553,0.703196 -0.09252,0.87899 l -0.06477,0.323838 -0.148039,-0.277573 c -0.08327,-0.157294 -1.156566,-1.878264 -2.387153,-3.830547 -2.183597,-3.469698 -2.239112,-3.571478 -2.183597,-3.941581 0.04627,-0.407107 0.231313,-0.878989 0.323838,-0.878989 0.02775,0 0.416364,0.573656 0.851233,1.276852 z m -1.489657,0.01851 c 0,0.175799 5.098145,8.18849 5.209174,8.18849 0.06477,0 1.027028,-0.490388 2.146587,-1.082549 3.367925,-1.794989 5.144404,-2.387156 6.735844,-2.257616 l 0.72169,0.06477 -0.0555,-0.222064 c -0.0833,-0.333093 0.11103,-0.990019 0.27758,-0.934504 0.074,0.02774 0.3701,-0.01851 0.65693,-0.10178 0.50889,-0.148039 0.5459,-0.148039 0.65693,0.0093 0.0648,0.09252 0.12028,0.351592 0.12028,0.573656 v 0.416363 l 0.41637,-0.388608 c 0.61066,-0.564401 1.49891,-1.110303 2.03555,-1.249087 0.65693,-0.175799 2.95156,-0.333093 4.9316,-0.333093 1.2861,0 1.68396,-0.02774 1.68396,-0.120285 0,-0.05553 -0.10178,-0.425617 -0.22206,-0.80497 -0.12028,-0.379352 -0.21281,-0.712445 -0.1943,-0.73095 0.0185,-0.01851 0.35159,0.194304 0.73095,0.462627 l 0.69393,0.499637 -0.009,0.481132 c -0.009,0.388602 -0.0462,0.490382 -0.1573,0.490382 -0.27756,0 -4.00634,0.462627 -6.47676,0.79572 -2.27612,0.305333 -2.46117,0.351593 -2.80351,0.601411 -0.7587,0.545902 -2.02631,0.86974 -2.89604,0.730951 -0.42562,-0.06477 -0.59216,-0.02774 -2.128081,0.527397 -2.183597,0.786465 -3.145861,1.184323 -5.310953,2.174341 -0.990018,0.453378 -1.822747,0.786465 -1.859759,0.749456 -0.09252,-0.10178 -5.273941,-8.549338 -5.273941,-8.595603 0,-0.01851 0.08327,-0.03702 0.18505,-0.03702 0.101778,0 0.185051,0.03702 0.185051,0.09253 z m 24.824535,0.730945 c -0.037,0.148044 0.0555,0.601416 0.30534,1.461901 l 0.0555,0.212809 h -1.69322 c -0.9345,0 -2.35014,0.06477 -3.14585,0.129534 -1.64696,0.148044 -2.09108,0.296083 -3.00708,0.990024 l -0.5644,0.425618 -0.11103,-0.305339 c -0.13879,-0.397858 -0.42562,-0.471877 -0.98077,-0.286828 l -0.42562,0.148044 0.23132,-0.388608 c 0.41261,-0.849996 1.04553,-1.332361 1.55442,-1.58218 1.20283,-0.582911 3.14586,-0.83273 7.35576,-0.962264 0.42562,-0.01851 0.47188,0 0.42562,0.157289 z m -9.65039,2.128087 c 0,0.04625 -0.0648,0.138784 -0.15729,0.203554 -0.20356,0.175799 -0.58291,0.999274 -0.58291,1.286102 0,0.231314 0,0.231314 -0.90675,0.240569 -1.07329,0 -1.943025,0.212803 -3.395676,0.823469 -0.971514,0.407113 -4.07111,2.007803 -4.598507,2.377901 -0.148039,0.101779 -0.268323,0.138789 -0.305333,0.07403 -0.02774,-0.04625 -0.01851,-0.09253 0.03702,-0.09253 0.04625,0 0.111029,-0.240563 0.148039,-0.536647 0.148045,-1.424886 0.02774,-1.230582 1.091798,-1.757979 0.518148,-0.259074 1.526671,-0.786465 2.239117,-1.175073 1.480406,-0.795715 2.405655,-1.175067 3.33091,-1.369371 0.703182,-0.157294 3.099592,-0.212809 3.099592,-0.07402 z"
       id="path1-3"
       style="fill:#000000;stroke:none;stroke-width:0.00925255" /></g>
</svg>
